<?xml version="1.0" encoding="utf-8"?>
<!-- Generator: Adobe Illustrator 22.1.0, SVG Export Plug-In . SVG Version: 6.00 Build 0)  -->
<svg version="1.1" id="Layer_1" xmlns="http://www.w3.org/2000/svg" xmlns:xlink="http://www.w3.org/1999/xlink" x="0px" y="0px"
	 viewBox="0 0 70 70" style="enable-background:new 0 0 70 70;" xml:space="preserve">
<style type="text/css">
	.st0{fill:#FFFFFF;}
</style>
<circle cx="35" cy="35" r="34"/>
<g>
	<polygon class="st0" points="21.9,9.8 21.9,10.2 21.9,15.3 23.1,15.3 23.1,10.4 47.5,10.4 47.5,15.3 48.1,15.3 48.1,9.8 	"/>
	<path class="st0" d="M35,18.7c-0.6,0-0.9,1.5-0.9,3.3v36.9c0,1.8,0.4,3.3,0.9,3.3c0.6,0,0.9-1.5,0.9-3.3V22
		C35.9,20.2,35.6,18.7,35,18.7"/>
	<path class="st0" d="M35.9,10.4h-1.2v0.6h-1.2v7.3h0.7c0.2-0.6,0.5-0.9,0.9-0.9c0.4,0,0.7,0.2,0.9,0.9h0.5v-7.3h-0.6L35.9,10.4
		L35.9,10.4z"/>
	<rect x="31.7" y="39.6" class="st0" width="1.7" height="1.7"/>
	<path class="st0" d="M34.1,10.4v0.6h-0.6v7.3h0.5c0.2-0.6,0.5-0.9,0.9-0.9c0.4,0,0.7,0.2,0.9,0.9h0.7v-7.3h-1.2v-0.6H34.1
		L34.1,10.4z"/>
	<polygon class="st0" points="21.9,9.8 21.9,15.3 22.5,15.3 22.5,10.4 46.9,10.4 46.9,15.3 48.1,15.3 48.1,10.2 48.1,9.8 	"/>
	<rect x="36.5" y="39.6" class="st0" width="1.7" height="1.7"/>
</g>
</svg>
