<?xml version="1.0" standalone="no"?>
<!DOCTYPE svg PUBLIC "-//W3C//DTD SVG 20010904//EN"
 "http://www.w3.org/TR/2001/REC-SVG-20010904/DTD/svg10.dtd">
<svg version="1.0" xmlns="http://www.w3.org/2000/svg"
 width="700.000000pt" height="700.000000pt" viewBox="0 0 700.000000 700.000000"
 preserveAspectRatio="xMidYMid meet">
<metadata>
Created by potrace 1.11, written by Peter Selinger 2001-2013
</metadata>
<g transform="translate(0.000000,700.000000) scale(0.100000,-0.100000)"
fill="#000000" stroke="none">
<path d="M3230 6894 c-19 -2 -78 -9 -130 -15 -1470 -164 -2682 -1304 -2949
-2774 -41 -225 -46 -294 -46 -605 0 -311 5 -380 46 -605 254 -1398 1346 -2490
2744 -2744 225 -41 294 -46 605 -46 311 0 380 5 605 46 1398 254 2490 1346
2744 2744 41 225 46 294 46 605 0 311 -5 380 -46 605 -252 1388 -1334 2478
-2719 2740 -203 38 -298 46 -580 50 -157 2 -301 1 -320 -1z m1580 -1149 l0
-275 -60 0 -60 0 0 245 0 245 -550 0 -550 0 0 -30 c0 -27 3 -30 30 -30 l30 0
0 -365 0 -365 -34 0 c-27 0 -36 5 -41 23 -11 33 -46 67 -70 67 -30 0 -60 -24
-75 -60 -10 -25 -18 -30 -46 -30 l-34 0 0 365 0 365 30 0 c27 0 30 3 30 30 l0
30 -550 0 -550 0 0 -245 0 -245 -60 0 -60 0 0 275 0 275 1310 0 1310 0 0 -275z
m-1270 -657 c45 -75 45 -57 45 -2133 0 -2076 0 -2058 -45 -2133 -23 -38 -53
-41 -75 -9 -8 13 -23 59 -32 102 -17 75 -18 201 -18 2040 0 2076 0 2058 45
2133 12 19 28 32 40 32 12 0 28 -13 40 -32z m-200 -2133 l0 -85 -85 0 -85 0 0
85 0 85 85 0 85 0 0 -85z m480 0 l0 -85 -85 0 -85 0 0 85 0 85 85 0 85 0 0
-85z"/>
</g>
</svg>
