
<svg width="36px" height="39px" viewBox="0 0 36 39" version="1.1" xmlns="http://www.w3.org/2000/svg" xmlns:xlink="http://www.w3.org/1999/xlink">
    <!-- Generator: Sketch 48.2 (47327) - http://www.bohemiancoding.com/sketch -->
    <desc>Created with Sketch.</desc>
    <defs></defs>
    <g id="Symbols" stroke="none" stroke-width="1" fill="none" fill-rule="evenodd">
        <g id="Navigation" transform="translate(-1324.000000, -35.000000)" fill="#222222" fill-rule="nonzero">
            <g transform="translate(0.000000, 5.000000)" id="Group-2">
                <g transform="translate(1126.000000, 30.000000)">
                    <g id="shopping-cart" transform="translate(198.000000, 0.000000)">
                        <path d="M10.2600522,25.4590778 L31.6051806,25.4590778 C34.0255159,25.4590778 36,23.4882703 36,21.0724418 L36,12.1084465 C36,12.1004997 36,12.0846061 36,12.0766593 C36,12.0528188 36,12.0369252 36,12.0130848 C36,11.9971912 36,11.9812976 35.9920384,11.965404 C35.9920384,11.9495104 35.9840767,11.92567 35.9840767,11.9097764 C35.9840767,11.8938828 35.9761151,11.8779892 35.9761151,11.8620955 C35.9681535,11.8462019 35.9681535,11.8303083 35.9601919,11.8064679 C35.9522302,11.7905743 35.9522302,11.7746807 35.9442686,11.7587871 C35.936307,11.7428935 35.936307,11.7269999 35.9283453,11.7111063 C35.9203837,11.6952126 35.9124221,11.679319 35.9044604,11.6554786 C35.8964988,11.639585 35.8885372,11.6236914 35.8805756,11.6157446 C35.8726139,11.599851 35.8646523,11.5839574 35.8566907,11.5680638 C35.848729,11.5521702 35.8407674,11.5442234 35.8328058,11.5283298 C35.8248442,11.5124361 35.8089209,11.4965425 35.8009593,11.4806489 C35.7929976,11.4647553 35.785036,11.4568085 35.7691127,11.4409149 C35.7611511,11.4250213 35.7452279,11.4170745 35.7372662,11.4011809 C35.7293046,11.3852873 35.7133813,11.3773405 35.7054197,11.3614469 C35.6974581,11.3455533 35.6815348,11.3376065 35.6735732,11.3296596 C35.6576499,11.313766 35.6496883,11.3058192 35.633765,11.2899256 C35.6178418,11.2819788 35.6098802,11.2660852 35.5939569,11.2581384 C35.5780336,11.2501916 35.5621104,11.234298 35.5461871,11.2263512 C35.5302639,11.2184044 35.5223022,11.2104576 35.506379,11.2025108 C35.4904557,11.194564 35.4745325,11.1866172 35.4586092,11.1707236 C35.4426859,11.1627768 35.4267627,11.15483 35.4108394,11.1468831 C35.3949162,11.1389363 35.3789929,11.1309895 35.3630697,11.1230427 C35.3471464,11.1150959 35.3312231,11.1071491 35.3152999,11.0992023 C35.2993766,11.0912555 35.2834534,11.0912555 35.2675301,11.0833087 C35.2516068,11.0753619 35.227722,11.0674151 35.2117987,11.0674151 C35.1958754,11.0674151 35.1799522,11.0594683 35.1719905,11.0594683 C35.1481057,11.0515215 35.1321824,11.0515215 35.1082975,11.0515215 C35.1003359,11.0515215 35.0923743,11.0435747 35.076451,11.0435747 L8.0228344,7.31652344 L8.0228344,3.54973818 C8.0228344,3.51000415 8.0228344,3.47027013 8.01487277,3.43848291 C8.01487277,3.43053611 8.01487277,3.42258931 8.00691114,3.4066957 C8.00691114,3.38285528 7.99894951,3.35901487 7.99894951,3.33517446 C7.99098788,3.31133404 7.99098788,3.29544044 7.98302625,3.27160002 C7.98302625,3.25570641 7.97506462,3.24775961 7.97506462,3.231866 C7.96710299,3.20802559 7.95914136,3.18418517 7.95117973,3.16034476 C7.95117973,3.15239796 7.9432181,3.13650435 7.9432181,3.12855754 C7.93525647,3.10471713 7.92729484,3.08882352 7.91137158,3.06498311 C7.90340995,3.0570363 7.90340995,3.0411427 7.89544833,3.03319589 C7.8874867,3.01730228 7.87952507,3.00140867 7.86360181,2.98551507 C7.85564018,2.96962146 7.84767855,2.96167465 7.83971692,2.94578104 C7.83175529,2.92988743 7.82379366,2.92194063 7.81583203,2.90604702 C7.8078704,2.89015341 7.79194714,2.8742598 7.78398551,2.8583662 C7.77602388,2.85041939 7.76806226,2.84247259 7.76010063,2.83452578 C7.74417737,2.81863217 7.72825411,2.80273856 7.71233085,2.78684496 C7.70436922,2.77889815 7.69640759,2.77095135 7.68844596,2.76300454 C7.6725227,2.74711093 7.65659944,2.73121733 7.63271456,2.71532372 C7.62475293,2.70737691 7.60882967,2.69943011 7.60086804,2.6914833 C7.58494478,2.67558969 7.56902152,2.66764289 7.55309826,2.65174928 C7.52921337,2.63585567 7.50532849,2.61996206 7.48940523,2.61201526 C7.4814436,2.60406846 7.47348197,2.60406846 7.46552034,2.59612165 C7.43367382,2.58022804 7.39386568,2.56433443 7.36201916,2.54844082 L1.49429831,0.0849314717 C0.944945886,-0.145525855 0.315977166,0.108771885 0.0850899139,0.657101386 C-0.145797338,1.20543089 0.108974802,1.83322843 0.658327228,2.06368576 L5.86523284,4.25700376 L5.86523284,9.12044804 L5.86523284,9.89128806 L5.86523284,15.8037105 L5.86523284,21.0883354 L5.86523284,27.7636511 C5.86523284,29.9887563 7.537175,31.8324149 9.69477656,32.1105531 C9.30465672,32.762191 9.07376947,33.5250842 9.07376947,34.3356583 C9.07376947,36.7276464 11.0243687,38.6666667 13.4128575,38.6666667 C15.8013463,38.6666667 17.7519455,36.7196996 17.7519455,34.3356583 C17.7519455,33.5409779 17.5369815,32.7860314 17.1548233,32.1502871 L26.8202413,32.1502871 C26.4380831,32.7939782 26.2231191,33.5409779 26.2231191,34.3356583 C26.2231191,36.7276464 28.1737183,38.6666667 30.5622071,38.6666667 C32.950696,38.6666667 34.9012951,36.7196996 34.9012951,34.3356583 C34.9012951,31.951617 32.950696,30.0046499 30.5622071,30.0046499 L10.2600522,30.0046499 C9.01803807,30.0046499 8.01487277,28.9954058 8.01487277,27.7636511 L8.01487277,24.8551207 C8.66772637,25.2365673 9.44000442,25.4590778 10.2600522,25.4590778 Z M15.6102672,34.3277115 C15.6102672,35.5356257 14.6230251,36.5130827 13.4208191,36.5130827 C12.2186131,36.5130827 11.231371,35.5276789 11.231371,34.3277115 C11.231371,33.127744 12.2186131,32.1423403 13.4208191,32.1423403 C14.6230251,32.1423403 15.6102672,33.1197972 15.6102672,34.3277115 Z M32.7596168,34.3277115 C32.7596168,35.5356257 31.7723748,36.5130827 30.5701688,36.5130827 C29.3679627,36.5130827 28.3807207,35.5276789 28.3807207,34.3277115 C28.3807207,33.127744 29.3679627,32.1423403 30.5701688,32.1423403 C31.7723748,32.1423403 32.7596168,33.1197972 32.7596168,34.3277115 Z M31.6051806,23.3134406 L10.2600522,23.3134406 C9.01803807,23.3134406 8.01487277,22.3041965 8.01487277,21.0724418 L8.01487277,15.7878169 L8.01487277,9.87539445 L8.01487277,9.47805423 L33.8503601,13.0302758 L33.8503601,21.064495 C33.8503601,22.3121433 32.8392331,23.3134406 31.6051806,23.3134406 Z" id="Shape"></path>
                    </g>
                </g>
            </g>
        </g>
    </g>
</svg>