<?xml version="1.0" encoding="utf-8"?>
<!-- Generator: Adobe Illustrator 16.0.4, SVG Export Plug-In . SVG Version: 6.00 Build 0)  -->
<!DOCTYPE svg PUBLIC "-//W3C//DTD SVG 1.1//EN" "http://www.w3.org/Graphics/SVG/1.1/DTD/svg11.dtd">
<svg version="1.1" id="Layer_1" xmlns="http://www.w3.org/2000/svg" xmlns:xlink="http://www.w3.org/1999/xlink" x="0px" y="0px"
	 width="132px" height="54px" viewBox="0 0 132 54" enable-background="new 0 0 132 54" xml:space="preserve">
<polygon fill="#FFFFFF" points="0.616,22.241 0.616,23.464 3.062,23.464 3.062,35.694 0.616,35.694 0.616,36.917 11.623,36.917 
	11.623,33.248 11.012,33.248 11.012,35.694 5.508,35.694 5.508,23.464 7.955,23.464 7.955,22.241 "/>
<polygon fill="#FFFFFF" points="23.243,35.694 17.738,35.694 17.738,29.579 22.02,29.579 22.02,31.413 23.243,31.413 23.243,27.011 
	22.02,27.042 22.02,28.356 17.738,28.356 17.738,23.464 23.243,23.464 23.243,24.687 24.465,24.687 24.465,21.629 23.243,21.629 
	23.243,22.241 13.458,22.241 13.458,23.464 15.292,23.464 15.292,35.694 13.458,35.694 13.458,36.917 24.465,36.917 24.465,33.859 
	23.243,33.859 "/>
<polygon fill="#FFFFFF" points="35.754,32.984 30.732,22.241 25.688,22.241 25.688,23.464 28.134,23.464 28.134,35.694 
	25.688,35.694 25.688,36.917 32.416,36.917 32.416,35.694 29.969,35.694 29.969,25.518 35.25,36.896 40.976,24.882 40.976,35.694 
	38.53,35.694 38.53,36.917 45.869,36.917 45.869,35.694 43.423,35.694 43.423,23.464 45.869,23.464 45.869,22.241 40.87,22.241 "/>
<polygon fill="#FFFFFF" points="55.066,21.629 54.24,21.629 48.137,35.694 47.092,35.694 47.092,36.917 51.373,36.917 
	51.373,35.694 49.567,35.694 51.093,32.131 51.634,30.842 54.05,25.224 56.37,30.806 56.878,32.139 58.309,35.694 56.876,35.694 
	56.876,36.917 62.38,36.917 62.38,35.694 60.914,35.694 "/>
<path fill="#FFFFFF" d="M77.414,28.281c-0.668-0.38-1.431-0.824-2.258-1.302c-1.079-0.636-1.43-1.08-1.43-1.907
	c0-1.303,0.992-2.129,2.488-2.129c0.856,0,1.453,0.159,2.676,0.826v1.529h1.223v-3.669h-1.223v0.711
	c-1.223-0.509-1.852-0.732-2.897-0.732c-2.543,0-4.552,1.812-4.552,4.101c0,1.874,0.951,2.988,3.748,4.386
	c2.641,1.334,3.495,2.159,3.495,3.366c0,1.24-1.111,2.133-2.701,2.133c-1.079,0-1.984-0.289-3.208-1.052v-1.906h-1.223v4.28h1.223
	v-0.879c1.224,0.7,2.352,1.047,3.56,1.047c2.638,0,4.59-1.809,4.59-4.193C80.925,30.823,80.146,29.809,77.414,28.281"/>
<path fill="#FFFFFF" d="M88.922,35.751c-2.669,0-4.799-2.86-4.799-6.451c0-3.528,2.13-6.356,4.799-6.356
	c2.671,0,4.832,2.828,4.832,6.389C93.754,32.922,91.624,35.751,88.922,35.751 M88.955,21.608c-4.069,0-7.564,3.56-7.564,7.692
	c0,4.196,3.495,7.786,7.564,7.786c4.004,0,7.501-3.624,7.501-7.786C96.456,25.2,92.959,21.608,88.955,21.608"/>
<polygon fill="#FFFFFF" points="113.748,23.464 116.194,23.464 116.194,22.241 111.36,22.241 106.245,32.983 101.223,22.241 
	96.625,22.241 96.625,23.464 99.071,23.464 99.071,35.693 96.625,35.693 96.625,36.918 102.741,36.918 102.741,35.693 
	100.295,35.693 100.295,25.518 105.576,36.896 111.302,24.882 111.302,35.693 108.855,35.693 108.855,36.918 116.194,36.918 
	116.194,35.693 113.748,35.693 "/>
<path fill="#FFFFFF" d="M123.854,35.751c-2.671,0-4.8-2.86-4.8-6.451c0-3.528,2.129-6.356,4.8-6.356
	c2.668,0,4.831,2.828,4.831,6.389C128.685,32.922,126.554,35.751,123.854,35.751 M123.884,21.608c-4.067,0-7.563,3.56-7.563,7.692
	c0,4.196,3.496,7.786,7.563,7.786c4.006,0,7.501-3.624,7.501-7.786C131.385,25.2,127.89,21.608,123.884,21.608"/>
<polygon fill="#FFFFFF" points="53.207,0.837 53.207,1.201 53.207,6.341 54.43,6.341 54.43,1.449 78.891,1.449 78.891,6.341 
	79.503,6.341 79.503,0.837 "/>
<path fill="#FFFFFF" d="M66.355,9.689c-0.548,0-0.918,1.469-0.918,3.264V49.9c0,1.794,0.37,3.263,0.918,3.263
	c0.546,0,0.917-1.469,0.917-3.263V12.953C67.272,11.158,66.901,9.689,66.355,9.689"/>
<rect x="67.884" y="30.802" fill="#FFFFFF" width="1.224" height="1.224"/>
<path fill="#FFFFFF" d="M67.272,1.449h-1.223v0.612h-1.223v7.338h0.727c0.213-0.612,0.515-0.859,0.94-0.859
	c0.423,0,0.725,0.247,0.938,0.859h0.453V2.061h-0.611V1.449z"/>
<rect x="63.603" y="30.802" fill="#FFFFFF" width="1.223" height="1.224"/>
</svg>
